<?xml version="1.0" encoding="utf-8"?>
<!-- Generator: Adobe Illustrator 16.0.0, SVG Export Plug-In . SVG Version: 6.00 Build 0)  -->
<!DOCTYPE svg PUBLIC "-//W3C//DTD SVG 1.1//EN" "http://www.w3.org/Graphics/SVG/1.1/DTD/svg11.dtd">
<svg version="1.1" id="Layer_1" xmlns="http://www.w3.org/2000/svg" xmlns:xlink="http://www.w3.org/1999/xlink" x="0px" y="0px"
	 width="800px" height="800px" viewBox="0 0 800 800" enable-background="new 0 0 800 800" xml:space="preserve">
<g>
	<path fill="#0D131A" d="M379.127,153.223l-40.354-3.827c-27.329-3.404-41.843-6.966-43.545-10.688
		c-1.381-2.872-1.596-8.933-0.639-18.183c0.852-9.145,2.182-14.567,3.989-16.27c2.977-2.872,16.003,1.011,39.077,11.643
		c11.485,5.317,22.704,10.899,33.655,16.748l-33.655-38.599c-22.436-26.478-33.708-41.472-33.814-44.98
		c-0.104-4.147,2.926-8.826,9.092-14.037c6.168-5.21,11.431-7.816,15.792-7.816c5.104,0,14.728,10.527,28.87,31.582
		c15.1,22.543,26.901,45.249,35.41,68.111l-4.467-47.375c-2.658-32.007-3.138-49.127-1.436-51.361
		c2.126-2.765,6.751-3.721,13.877-2.87c6.808,0.744,11.431,2.445,13.876,5.104c1.808,1.914,1.808,22.17,0,60.771l-3.349,57.262
		L379.127,153.223"/>
	<path fill="#0D131A" d="M575.641,773.854c-6.598,1.383-16.484-2.019-29.67-10.204l-17.704-12.764l-25.682,11.963
		c-18.183,7.445-30.04,10.156-35.568,8.138c-3.192-1.17-4.519-7.816-3.988-19.938c0.531-11.275,2.286-22.014,5.264-32.222
		l118.829-40.354c16.484,9.466,32.273,22.915,47.374,40.354c15.843,18.395,21.27,30.73,16.271,37.007
		c-3.087,3.933-13.933,2.601-32.542-3.989l-26.952-11.167l-3.83,15.791C584.04,767.21,580.104,773.007,575.641,773.854"/>
	<path fill="#FFF1AC" d="M589.672,725.048l-4.462,20.575c-3.298,11.699-6.913,18.133-10.85,19.303
		c-3.506,1.063-10.581-1.274-21.213-7.019c-12.548-6.809-22.33-15.364-29.351-25.683c-1.486-2.233-2.656-3.029-3.51-2.393
		c-0.743,0.638-0.585,2.393,0.479,5.265l3.51,8.934c-7.125,4.572-15.737,8.93-25.84,13.08c-11.695,4.784-19.406,6.432-23.127,4.939
		c-2.872-1.061-3.988-7.495-3.352-19.296c0.639-11.062,2.286-21.214,4.943-30.467l99.371-31.104
		c14.462,6.276,29.935,18.45,46.414,36.527c15.74,17.334,22.065,27.807,18.982,31.422c-1.382,1.487-8.137,0.057-20.258-4.306
		c-12.228-4.359-21.852-8.774-28.867-13.239l0.155-5.104c0-2.341-0.317-3.827-0.955-4.466
		C591.004,721.273,590.313,722.282,589.672,725.048"/>
	<path fill="#DCD096" d="M536.562,720.9c-10.636,3.298-24.461,6.54-41.476,9.731l-22.487,3.827l1.438-14.518l106.069-38.917
		l14.196,11.162l-20.417,11.806C558.359,712.394,545.917,718.031,536.562,720.9"/>
	<path fill="#0D131A" d="M375.778,715.001c8.188,14.035,13.929,25.094,17.228,33.174c5.315,12.868,5.795,20.367,1.435,22.492
		c-5.423,2.554-17.439-0.427-36.048-8.934l-26.317-13.56l-16.11,13.722c-11.803,9.142-20.31,13.504-25.521,13.076
		c-4.997-0.427-9.676-5.262-14.036-14.515l-4.945-13.718l-33.335,7.178l-38.602,1.117c-4.359-4.997,3.35-16.749,23.128-35.249
		c19.46-17.971,37.324-30.522,53.593-37.646L375.778,715.001"/>
	<path fill="#FFF1AC" d="M382.478,741c5.212,12.545,6.54,19.62,3.988,21.213c-2.553,1.593-9.89-0.317-22.012-5.743
		c-12.123-5.313-21.162-10.579-27.117-15.791l1.915-6.061c0.532-2.34,0.268-3.615-0.798-3.827c-1.063-0.214-2.126,0.582-3.189,2.393
		c-3.827,6.167-11.219,13.188-22.171,21.053c-10.953,7.978-18.503,11.646-22.65,11.008c-7.231-1.063-12.866-11.748-16.907-32.061
		c-0.425-2.128-1.01-3.086-1.755-2.871c-0.638,0.215-1.063,1.54-1.276,3.985l0.319,3.988c-10.101,3.51-22.491,6.382-37.164,8.611
		l-23.128,0.96c-1.596-3.085,5.795-12.229,22.17-27.438c18.397-17.225,36.952-29.613,55.668-37.162l77.519,25.837
		C372.271,718.987,377.799,729.621,382.478,741"/>
	<path fill="#DCD096" d="M312.774,716.911c-9.251-3.295-19.3-8.291-30.147-14.99l-13.558-9.253l11.805-6.54l89.481,28.873
		l8.135,16.746l-21.055-3.349C340.741,725.313,325.854,721.485,312.774,716.911"/>
	<path fill="#0D131A" d="M152.474,622.167c-14.356-12.336-25.043-24.243-32.062-35.729c-7.125-11.378-8.667-19.088-4.625-23.13
		c6.593-6.698,19.671-4.838,39.237,5.582c11.91,6.382,19.779,10.317,23.606,11.805c8.932,3.615,16.375,4.839,22.33,3.672
		l2.711,12.438c3.297,10.635,8.721,21.64,16.271,33.018c7.55,11.38,17.492,22.277,29.827,32.697
		c6.168,5.212,11.591,9.251,16.27,12.125C226.801,671.243,188.945,653.751,152.474,622.167"/>
	<path fill="#F9BE00" d="M163,619.296c-14.143-11.375-25.308-22.115-33.497-32.219c-8.082-10.208-10.793-16.802-8.135-19.778
		c2.553-2.979,7.178-3.192,13.877-0.638c3.509,1.381,10.9,5.211,22.171,11.482c23.607,13.188,41.791,18.979,54.551,17.388
		l49.604,71.935C231.798,664.171,198.94,648.112,163,619.296"/>
	<path fill="#D7A400" d="M188.521,638.277c-24.564-15.417-42.482-30.464-53.753-45.14c28.179,25.202,55.135,41.311,80.869,48.329
		c12.76,3.509,22.755,4.521,29.985,3.03l15.95,22.968C240.307,665.126,215.955,655.398,188.521,638.277"/>
	<path fill="#0D131A" d="M648.371,229.945c17.441,20.843,28.923,43.543,34.455,68.107c6.271,27.968,4.306,57.688-5.902,89.163
		c-10.529,32.221-26.852,57.208-48.97,74.968l-83.261-101.284c6.379-7.445,12.284-17.069,17.704-28.871
		c10.74-23.5,13.771-46.098,9.092-67.79c-4.251-19.353-11.696-38.867-22.327-58.537c-7.872-14.356-11.062-22.278-9.571-23.768
		c2.021-2.019,5.263-2.71,9.728-2.072l6.061,1.755l-1.91-4.947c-0.746-3.616,0.159-6.378,2.711-8.292l14.677-0.32l10.205,3.03
		c0.319-2.125,0.958-4.253,1.917-6.381c1.804-4.253,4.144-6.484,7.016-6.699c5-0.423,10.05,3.51,15.155,11.805l14.99,29.349
		C621.949,202.671,631.357,212.933,648.371,229.945"/>
	<path fill="#F9BE00" d="M641.195,233.456c18.712,23.817,29.613,47.317,32.693,70.5c4.258,30.731,2.396,58.59-5.581,83.581
		c-8.187,25.839-22.7,48.064-43.544,66.673l-70.342-86.453c6.276-8.718,12.122-19.353,17.545-31.901
		c10.848-25.202,14.146-47.585,9.889-67.152c-4.038-18.395-10.951-36.845-20.733-55.348c-7.76-14.673-11.483-22.225-11.164-22.647
		c1.382-1.808,4.096-2.181,8.134-1.117c2.021,0.532,3.934,1.275,5.743,2.234c-1.063-2.234-1.859-4.679-2.393-7.339
		c-1.17-5.208-0.585-8.666,1.752-10.367c2.232-1.702,6.755-1.276,13.559,1.275l9.412,4.147l0.159-6.381
		c0.531-4.253,1.543-6.699,3.03-7.336c2.551-0.955,6.223,2.498,11.008,10.37c3.933,6.59,8.027,15.046,12.28,25.361l9.249,10.046
		C629.444,219.363,635.875,226.647,641.195,233.456"/>
	<path fill="#0D131A" d="M661.292,565.227c-0.426,47.423-23.395,85.974-68.907,115.641c-44.236,29.028-99.581,43.17-166.044,42.427
		c-67.31-0.743-123.242-16.854-167.799-48.329c-44.342-31.157-66.3-69.598-65.875-115.322c0.213-24.35,6.541-51.307,18.981-80.867
		c12.548-29.986,29.35-57.901,50.404-83.743c22.756-27.859,47.691-49.657,74.808-65.395c30.199-17.548,60.824-26.16,91.874-25.84
		c31.475,0.317,62.313,10.046,92.514,29.188c26.9,16.907,51.573,39.984,74.01,69.226c20.417,26.583,36.687,55.03,48.809,85.338
		C655.764,517,661.504,542.894,661.292,565.227"/>
	<path fill="#F9BE00" d="M651.88,563.15c-0.423,45.192-22.436,82.252-66.034,111.176c-42.744,28.392-95.649,42.215-158.704,41.472
		c-63.166-0.638-116.281-15.632-159.348-44.981c-44.13-29.986-65.98-67.521-65.556-112.608c0.213-23.073,6.38-48.702,18.503-76.882
		c12.122-28.392,28.444-54.923,48.968-79.596c22.012-26.369,46.043-47.053,72.096-62.047c28.923-16.693,58.167-24.882,87.726-24.564
		c29.563,0.321,58.646,9.147,87.248,26.481c25.737,15.522,49.341,36.739,70.821,63.641c19.992,25.097,35.779,52,47.372,80.709
		C646.457,514.343,652.092,540.074,651.88,563.15"/>
	<path fill="#D7A400" d="M450.905,318.95l12.918,0.479c27.753,6.593,54.552,20.47,80.392,41.63
		c23.396,19.141,44.133,42.588,62.208,70.341l0.159,5.104c0,32.434-15.205,60.137-45.619,83.104
		c-30.413,22.97-67.096,34.452-110.058,34.452s-79.646-11.482-110.059-34.452c-30.307-22.968-45.458-50.671-45.458-83.104
		c0-32.434,15.151-60.133,45.458-83.102C371.259,330.434,407.943,318.95,450.905,318.95"/>
	<path fill="#D7A400" d="M403.057,694.901c41.471,4.146,82.564,1.755,123.294-7.179c38.708-8.399,67.951-20.521,87.728-36.368
		c-20.205,20.847-46.627,36.953-79.271,48.331c-32.969,11.595-68.907,17.119-107.827,16.591
		c-63.271-0.642-116.385-15.581-159.344-44.822c-44.131-30.094-65.982-67.685-65.557-112.769
		c14.78,41.896,41.471,74.7,80.071,98.412C315.752,677.621,356.055,690.223,403.057,694.901"/>
	<path fill="#0D131A" d="M402.576,138.229c61.142-3.401,113.194,8.985,156.153,37.165c40.622,26.798,62.739,60.239,66.354,100.329
		c3.827,42.215-12.813,78.369-49.925,108.462c-36.9,29.99-85.177,46.684-144.83,50.087c-60.081,3.295-111.389-7.444-153.923-32.222
		c-42.96-25.202-66.354-58.804-70.183-100.808c-3.827-42.427,13.08-79.38,50.723-110.855
		C294.697,158.914,343.239,141.526,402.576,138.229"/>
	<path fill="#F9BE00" d="M403.531,144.931c55.401-3.086,103.997,8.239,145.786,33.973c41.687,25.734,64.337,58.326,67.951,97.777
		c3.511,39.449-13.079,74.169-49.767,104.156c-36.686,30.093-82.728,46.68-138.132,49.767
		c-55.506,3.083-104.103-8.242-145.786-33.977c-41.789-25.733-64.438-58.324-67.947-97.776
		c-3.615-39.45,12.973-74.169,49.765-104.157C302.087,164.602,348.13,148.015,403.531,144.931"/>
	<path fill="#0D131A" d="M242.752,227.871l0.159,7.019l4.785-2.551c3.723-1.49,6.859-1.49,9.412,0
		c2.552,1.381,2.871,7.072,0.957,17.066c-2.766,14.356-4.043,24.99-3.829,31.901c0.532,16.163,2.234,36.048,5.104,59.654
		c2.232,18.609,4.732,35.731,7.497,51.362c5.104,29.988,5.423,55.137,0.957,75.445c-3.296,15.525-9.196,27.437-17.705,35.73
		l-14.195,9.25l-15.152,6.54c-13.718,3.725-25.947,2.767-36.686-2.872c-17.866-9.465-29.827-25.413-35.891-47.851
		c-5.528-20.524-6.592-48.596-3.188-84.218c2.445-26.372,9.89-52.956,22.33-79.754c12.122-22.33,18.396-34.878,18.821-37.644
		c2.657-15.949,4.731-26.848,6.221-32.697c2.553-9.782,6.273-15.152,11.165-16.111c2.872-0.638,5.743,1.276,8.613,5.744l3.51,6.699
		c2.445-2.34,5.156-4.626,8.135-6.857c6.061-4.362,10.526-6.008,13.396-4.947C240.146,219.843,242.007,222.874,242.752,227.871"/>
	<path fill="#F9BE00" d="M213.083,239.357l7.977-6.54c5.741-4.253,9.941-5.902,12.601-4.947c2.659,0.958,4.146,4.147,4.467,9.57
		l-0.32,7.657c1.488-1.382,3.138-2.604,4.945-3.668c3.615-2.128,6.327-2.499,8.136-1.117c0.638,0.532,0.479,5.053-0.479,13.559
		l-2.551,22.647c-0.213,4.68,0.585,19.247,2.393,43.706c2.126,28.605,4.521,50.774,7.179,66.515
		c5.104,30.305,6.433,53.857,3.986,70.659c-1.702,11.698-6.486,24.085-14.354,37.165c-3.722,5.105-5.264,8.827-4.625,11.167
		c0.531,2.764,4.358,1.435,11.483-3.988l-3.51,4.468c-3.296,3.615-7.442,6.802-12.439,9.569c-8.082,4.356-14.781,6.591-20.099,6.696
		c8.827-2.763,12.176-5.42,10.05-7.975c-2.126-2.445-6.646-3.137-13.558-2.072c-20.948,3.4-37.006-4.785-48.171-24.564
		c-12.335-21.902-16.535-54.978-12.602-99.212c2.341-27.436,9.624-55.295,21.854-83.58c11.911-23.183,17.918-35.622,18.023-37.324
		c1.275-10.952,2.979-20.205,5.104-27.753c2.446-8.933,4.999-13.292,7.656-13.08C208.883,227.232,211.17,231.379,213.083,239.357"/>
	<path fill="#0D131A" d="M444.684,304.115c7.766-0.638,17.652,2.978,29.67,10.846c14.673,9.465,25.096,15.1,31.263,16.907
		c7.654,2.234,18.557,3.404,32.7,3.51c11.375,0.105,18.342,1.328,20.893,3.668c2.768,2.555,4.254,7.816,4.465,15.793
		c0.321,8.824,1.971,15.417,4.947,19.776l10.847,8.454c7.442,5.105,13.397,9.785,17.865,14.039
		c16.056,15.313,23.285,33.285,21.692,53.913c-1.49,20.84-17.229,38.864-47.215,54.069c-32.112,16.271-71.032,23.821-116.757,22.651
		c-49.979-1.171-88.153-7.391-114.525-18.662c-31.688-13.609-46.896-34.611-45.619-63.006c0.426-8.823,2.126-18.82,5.104-29.986
		c2.765-9.782,3.988-16.641,3.668-20.577c-0.213-3.404-1.809-8.081-4.784-14.036c-2.234-4.359-2.447-8.454-0.64-12.284
		c3.19-6.593,13.771-10.952,31.742-13.077c23.5-2.66,39.292-5.85,47.374-9.571c6.38-2.978,18.396-11.22,36.045-24.723
		C428.097,310.442,438.517,304.541,444.684,304.115"/>
	<path fill="#FFF1AC" d="M447.558,311.133c7.125-0.426,15.632,3.189,25.52,10.847c11.91,9.038,20.896,14.461,26.957,16.269
		c6.91,2.019,17.545,3.351,31.897,3.989c11.594,0.423,18.611,1.752,21.058,3.986c2.552,2.339,4.039,7.445,4.465,15.314
		c0.427,8.612,2.021,14.885,4.786,18.821c2.554,3.615,11.54,9.997,26.956,19.141c14.142,11.59,21.161,26.958,21.055,46.095
		c-0.104,14.146-8.242,27.437-24.404,39.878c-12.546,9.782-28.551,18.13-48.01,25.044c-7.977,2.868-20.205,5.37-36.688,7.495
		l-58.06,2.872c-21.902-0.853-44.183-3.938-66.832-9.254c-20.311-4.68-34.507-9.465-42.588-14.355
		c-10.208-6.167-17.545-12.757-22.011-19.774c-5.742-8.827-8.295-20.044-7.656-33.659c0.319-7.76,1.7-17.277,4.146-28.55
		c2.021-9.677,2.872-16.375,2.553-20.097c-0.213-2.872-1.489-6.914-3.829-12.125c-1.702-3.616-1.702-7.175,0-10.685
		c2.021-4.253,12.389-7.71,31.104-10.37c22.542-3.083,37.536-6.537,44.979-10.367l33.177-22.968
		C431.765,317.3,442.236,311.451,447.558,311.133"/>
	<path fill="#0D131A" d="M417.888,339.845c2.552,0.955,5.158,2.71,7.815,5.261c2.657,2.66,4.519,5.423,5.582,8.295
		c1.17,2.872,1.011,4.626-0.479,5.264c-1.487,0.532-3.138-0.426-4.94-2.872l-4.469-6.061l-7.178-4.306
		c-3.083-1.914-3.773-3.668-2.075-5.265L417.888,339.845"/>
	<path fill="#0D131A" d="M474.67,349.253l-2.869,4.468c-1.274,1.808-2.713,2.393-4.306,1.754c-1.063-0.32-1.332-1.49-0.8-3.509
		c0.426-2.022,1.385-3.989,2.871-5.902c1.382-1.914,2.925-3.298,4.624-4.147l3.671-0.317c1.382,0.85,1.435,2.125,0.159,3.827
		L474.67,349.253"/>
	<path fill="#DCD096" d="M325.854,477.178c9.039,8.189,27.701,15.313,55.985,21.372c29.351,6.275,59.603,9.307,90.76,9.095
		c35.625-0.215,65.133-4.838,88.523-13.88c27.542-10.632,44.025-26.527,49.445-47.69c-0.105,14.145-8.238,27.437-24.402,39.876
		c-12.652,9.784-28.658,18.133-48.011,25.046c-8.084,2.869-20.364,5.366-36.846,7.496l-58.059,2.87
		c-21.907-0.853-44.185-3.936-66.835-9.253c-20.31-4.68-34.505-9.465-42.587-14.354c-10.314-6.272-17.705-12.813-22.171-19.617
		c-5.848-8.827-8.506-20.047-7.976-33.656c0.426-8.826,1.33-16.005,2.713-21.532l3.188-14.035l-1.436,25.359
		C309.318,453.093,315.221,467.396,325.854,477.178"/>
	<path fill="#0D131A" d="M479.296,294.706c-10.846-10.317-15.365-21.481-13.556-33.497c1.805-12.016,9.465-21.266,22.968-27.753
		c13.503-6.593,28.923-8.56,46.257-5.902c17.229,2.657,31.315,9.145,42.269,19.458c10.847,10.423,15.364,21.587,13.56,33.497
		c-1.812,12.016-9.465,21.319-22.968,27.912c-13.507,6.593-28.924,8.51-46.26,5.744C504.34,311.503,490.251,305.021,479.296,294.706
		"/>
	<path fill="#FFFFFF" d="M484.719,291.833c-9.78-8.827-13.822-18.45-12.12-28.87c1.7-10.423,8.611-18.503,20.733-24.247
		c12.23-5.741,26.107-7.496,41.633-5.261c15.522,2.23,28.181,7.815,37.962,16.748c9.782,8.93,13.771,18.553,11.96,28.871
		c-1.698,10.42-8.611,18.5-20.733,24.244c-12.229,5.74-26.104,7.495-41.63,5.265C507.104,306.349,494.501,300.767,484.719,291.833"
		/>
	<path fill="#0D131A" d="M514.229,274.605c-1.699,0.106-3.189-0.426-4.465-1.596c-1.278-1.167-1.971-2.657-2.075-4.465
		c-0.105-1.702,0.426-3.189,1.596-4.465c1.17-1.276,2.66-1.97,4.465-2.075c1.705-0.106,3.192,0.426,4.468,1.596
		c1.276,1.17,1.968,2.657,2.072,4.465c0.106,1.702-0.423,3.192-1.593,4.468C517.525,273.81,516.038,274.5,514.229,274.605"/>
	<path fill="#0D131A" d="M395.238,304.115c-12.335,11.59-28.232,18.768-47.693,21.534c-19.353,2.766-36.579,0.426-51.678-7.019
		c-15.1-7.549-23.607-18.078-25.52-31.581c-1.915-13.506,3.296-25.999,15.631-37.482c12.335-11.488,28.178-18.609,47.531-21.376
		c19.354-2.766,36.579-0.374,51.681,7.178c15.1,7.442,23.659,17.918,25.678,31.422C412.784,280.188,407.573,292.63,395.238,304.115"
		/>
	<path fill="#FFFFFF" d="M389.975,300.767c-11.059,9.994-25.255,16.216-42.587,18.662c-17.333,2.446-32.753,0.37-46.258-6.223
		c-13.398-6.484-21.002-15.579-22.81-27.274c-1.7-11.696,2.925-22.489,13.876-32.38c11.06-9.994,25.255-16.216,42.589-18.662
		c17.333-2.446,32.751-0.426,46.256,6.061c13.505,6.593,21.108,15.737,22.81,27.436C405.659,279.977,401.033,290.77,389.975,300.767
		"/>
	<path fill="#0D131A" d="M348.823,280.987c-1.702,0.211-3.244-0.268-4.626-1.438c-1.276-1.17-2.021-2.604-2.232-4.306
		c-0.106-1.702,0.372-3.242,1.437-4.624c1.168-1.279,2.604-2.022,4.307-2.234c1.809-0.106,3.35,0.37,4.625,1.434
		c1.383,1.17,2.126,2.607,2.234,4.306c0.211,1.808-0.267,3.351-1.437,4.626C352.065,280.135,350.63,280.881,348.823,280.987"/>
</g>
</svg>
